<?xml version="1.0" standalone="no"?>
<!DOCTYPE svg PUBLIC "-//W3C//DTD SVG 20010904//EN"
 "http://www.w3.org/TR/2001/REC-SVG-20010904/DTD/svg10.dtd">
<svg version="1.0" xmlns="http://www.w3.org/2000/svg"
 width="500.000000pt" height="500.000000pt" viewBox="0 0 500.000000 500.000000"
 preserveAspectRatio="xMidYMid meet">

<g transform="translate(0.000000,500.000000) scale(0.100000,-0.100000)"
fill="#000000" stroke="none">
<path d="M2453 3496 c-48 -16 -423 -256 -423 -271 0 -5 9 -21 19 -34 l18 -24
31 21 c40 29 77 28 98 -3 21 -32 11 -59 -32 -85 -18 -12 -34 -24 -34 -27 0 -4
52 -85 115 -180 l116 -174 37 22 c20 13 109 70 197 129 153 101 162 105 208
102 37 -2 51 -8 63 -27 13 -19 13 -28 3 -47 -17 -32 -28 -38 -77 -38 l-42 0 2
-212 3 -213 195 -3 c278 -4 350 12 439 100 98 95 112 266 32 383 -36 53 -121
111 -182 124 -28 6 -136 11 -241 11 -177 0 -190 1 -183 18 5 9 14 41 22 71 35
130 -44 285 -173 342 -57 26 -157 33 -211 15z"/>
<path d="M2687 2333 c-4 -3 -7 -17 -7 -30 0 -22 -3 -23 -81 -23 -51 0 -78 -4
-74 -10 3 -5 39 -10 80 -10 69 0 74 -2 77 -22 5 -34 38 -37 38 -4 0 26 1 26
74 26 70 0 75 -1 78 -22 5 -34 38 -37 38 -4 0 26 1 26 79 26 86 0 104 10 75
41 -17 19 -18 19 -39 -1 -26 -25 -115 -29 -115 -6 0 8 6 17 13 19 9 4 8 8 -3
16 -24 17 -45 8 -48 -22 -3 -27 -4 -27 -78 -27 -57 0 -74 3 -74 14 0 8 5 16
12 18 6 2 8 10 4 16 -8 13 -38 16 -49 5z"/>
<path d="M3613 2299 c-7 -7 -74 -9 -202 -7 l-191 3 0 -150 c0 -162 -15 -256
-50 -325 -23 -45 -18 -68 7 -35 34 45 65 129 76 210 l11 85 195 0 194 0 -5
-104 c-8 -141 -11 -146 -99 -146 -44 0 -68 -4 -64 -10 3 -5 19 -10 34 -10 16
0 40 -9 55 -21 23 -18 29 -19 53 -7 36 17 51 63 59 186 4 53 12 100 18 104 6
4 4 14 -9 27 -16 19 -20 20 -35 6 -14 -12 -52 -15 -209 -15 l-192 0 3 38 3 37
173 3 c149 2 172 0 172 -13 0 -8 9 -15 20 -15 18 0 20 7 20 65 0 42 4 65 12
65 6 0 3 9 -7 20 -21 23 -27 24 -42 9z m-3 -74 l0 -45 -175 0 -175 0 0 45 0
45 175 0 175 0 0 -45z"/>
<path d="M1898 2245 c-10 -13 -18 -35 -18 -49 0 -25 -2 -25 -82 -29 l-83 -3
83 -2 82 -2 0 -30 c0 -24 -4 -30 -20 -30 -29 0 -78 -27 -90 -49 -20 -39 -12
-91 20 -123 29 -29 32 -29 53 -14 52 38 57 39 57 11 0 -36 -25 -83 -68 -127
-20 -21 -31 -38 -25 -38 19 0 104 82 123 121 24 45 26 132 5 169 -8 14 -14 44
-15 68 l0 42 61 0 60 0 -27 23 c-26 23 -28 23 -46 5 -32 -32 -47 -23 -50 31
l-3 49 -17 -23z m-14 -178 c9 -7 20 -31 23 -53 5 -38 3 -41 -32 -59 l-36 -20
-25 28 c-29 34 -30 56 -3 91 22 29 46 33 73 13z"/>
<path d="M1412 2235 c-13 -10 -22 -27 -22 -43 0 -15 -4 -32 -8 -39 -10 -16
-78 -44 -86 -36 -3 4 -6 -8 -6 -26 l0 -32 35 27 c20 15 38 24 41 21 7 -7 -30
-166 -58 -246 -22 -66 -22 -61 2 -61 21 0 19 -4 74 205 28 106 33 120 51 117
39 -7 50 -29 49 -100 -1 -66 -27 -171 -47 -184 -6 -3 -21 -2 -35 3 -39 15 -35
5 12 -29 l43 -31 21 47 c30 66 44 127 46 200 1 58 -1 66 -27 88 -15 13 -37 24
-47 24 -27 0 -31 12 -19 54 14 49 9 60 -19 41z"/>
<path d="M2774 2214 c-6 -35 -8 -36 -40 -31 l-34 6 0 -100 c0 -81 3 -99 15
-99 8 0 15 7 15 15 0 12 14 15 65 15 52 0 65 -3 65 -16 0 -9 7 -14 18 -12 14
3 18 18 22 93 4 67 2 94 -7 105 -11 12 -15 13 -22 2 -5 -8 -23 -12 -47 -10
l-39 3 24 24 c19 19 21 25 10 32 -26 16 -38 9 -45 -27z m86 -79 c0 -24 -2 -25
-65 -25 -63 0 -65 1 -65 25 0 24 2 25 65 25 63 0 65 -1 65 -25z m0 -75 l0 -31
-62 3 c-60 3 -63 4 -66 31 l-3 27 65 0 66 0 0 -30z"/>
<path d="M2151 2188 c-9 -26 -9 -30 1 -20 17 17 138 16 138 -1 0 -8 -5 -39
-11 -70 -11 -52 -13 -55 -35 -47 -51 20 -124 -67 -124 -148 0 -121 88 -105
136 25 9 26 21 52 25 56 11 14 79 -36 79 -58 0 -11 -14 -49 -30 -83 -17 -35
-30 -66 -30 -69 0 -18 40 35 60 80 13 28 25 53 26 55 1 2 14 -4 27 -13 24 -15
26 -15 29 2 3 10 -6 29 -18 43 -20 22 -22 30 -14 65 5 22 10 52 10 68 0 24 -4
27 -32 27 -28 0 -30 -2 -15 -12 12 -10 15 -23 10 -55 -3 -24 -10 -43 -16 -43
-10 0 -77 39 -77 45 0 3 9 43 20 90 11 47 20 88 20 90 0 3 -38 5 -84 5 l-84 0
-11 -32z m102 -174 c8 -8 -30 -114 -50 -136 -32 -35 -53 -17 -53 45 0 49 34
97 68 97 16 0 31 -3 35 -6z"/>
<path d="M2989 2186 c-19 -18 -44 -38 -55 -44 -10 -6 -16 -14 -12 -18 5 -4 34
6 65 23 56 29 65 33 80 33 3 0 -2 9 -12 20 -23 26 -23 26 -66 -14z"/>
<path d="M2578 2170 c23 -23 42 -45 42 -50 0 -13 27 -13 35 0 11 17 -15 49
-55 70 -61 31 -68 24 -22 -20z"/>
<path d="M1520 2193 c0 -3 9 -16 20 -28 11 -12 27 -52 37 -89 16 -66 16 -69
-2 -82 -25 -18 -17 -23 23 -12 21 6 32 15 32 26 0 37 -32 128 -53 150 -24 26
-57 47 -57 35z"/>
<path d="M2605 2069 c-33 -16 -64 -30 -69 -32 -5 -2 -3 -14 4 -27 11 -20 14
-21 24 -9 6 8 35 29 64 48 28 18 52 37 52 42 0 13 -9 11 -75 -22z"/>
<path d="M2924 2088 c94 -63 121 -78 133 -74 23 9 -2 42 -44 59 -21 8 -54 17
-73 21 -31 6 -33 5 -16 -6z"/>
<path d="M3513 2029 c-8 -8 -43 -10 -102 -7 l-91 4 0 -83 c0 -76 2 -83 20 -83
13 0 20 7 20 20 0 18 7 20 75 20 60 0 75 -3 75 -15 0 -8 9 -15 20 -15 18 0 20
7 20 58 0 33 5 63 13 71 10 10 8 15 -7 27 -24 17 -29 17 -43 3z m-3 -69 l0
-40 -75 0 -75 0 0 40 0 40 75 0 75 0 0 -40z"/>
<path d="M2780 1975 l0 -25 -132 -2 -133 -2 119 -6 119 -5 -38 -34 c-38 -33
-167 -101 -192 -101 -7 0 -13 -4 -13 -10 0 -5 5 -10 10 -10 24 0 168 62 210
90 l45 30 3 -71 c2 -60 5 -70 20 -67 14 3 18 17 20 80 l3 78 57 -39 c31 -21
84 -50 117 -64 55 -23 62 -24 77 -10 23 21 16 29 -29 38 -50 9 -152 51 -183
75 l-25 20 123 0 c67 0 122 4 122 8 0 5 -8 16 -18 26 -18 15 -20 15 -37 -4
-16 -17 -31 -20 -112 -20 -84 0 -111 8 -83 25 16 10 1 25 -26 25 -19 0 -24 -5
-24 -25z"/>
<path d="M2117 1593 c-4 -3 -7 -28 -7 -55 l0 -48 41 0 c24 0 38 4 34 10 -3 6
-17 10 -31 10 -30 0 -31 18 -1 30 l22 9 -22 0 c-37 1 -29 31 8 31 17 0 28 4
24 10 -7 11 -58 14 -68 3z"/>
<path d="M2224 1585 c-19 -15 -19 -15 5 -35 13 -11 29 -20 37 -20 8 0 14 -5
14 -11 0 -8 -12 -10 -36 -6 -31 5 -34 4 -23 -9 18 -22 74 -15 74 10 0 19 -12
29 -49 41 -15 4 -17 8 -7 18 9 9 16 9 32 -1 27 -17 40 -5 15 14 -25 18 -37 18
-62 -1z"/>
<path d="M2320 1590 c0 -5 7 -10 15 -10 11 0 15 -12 15 -45 0 -25 5 -45 10
-45 6 0 10 20 10 45 0 34 4 45 16 45 8 0 12 5 9 10 -3 6 -22 10 -41 10 -19 0
-34 -4 -34 -10z"/>
<path d="M2526 1581 c-13 -14 -15 -21 -6 -21 9 0 11 -10 7 -35 -5 -32 -4 -35
20 -35 19 0 23 3 15 13 -6 7 -12 32 -14 56 l-3 43 -19 -21z"/>
<path d="M2606 1587 c-28 -20 -17 -52 19 -54 21 -1 23 0 7 4 -15 3 -22 10 -20
21 5 27 35 26 40 0 7 -35 -1 -48 -28 -48 -14 0 -22 -4 -19 -10 3 -5 17 -10 31
-10 46 0 53 87 9 104 -21 8 -18 8 -39 -7z"/>
<path d="M2716 1587 c-27 -20 -17 -52 17 -52 16 1 27 -5 27 -12 0 -8 -12 -13
-31 -13 -17 0 -28 -4 -24 -10 9 -14 48 -13 63 2 20 20 15 76 -7 88 -25 13 -24
13 -45 -3z m39 -27 c0 -8 -8 -16 -17 -18 -13 -2 -18 3 -18 18 0 15 5 20 18 18
9 -2 17 -10 17 -18z"/>
<path d="M2824 1586 c-10 -8 -15 -18 -11 -22 4 -5 12 -2 17 5 9 15 40 8 40 -9
0 -5 -8 -10 -17 -10 -17 -1 -17 -1 0 -11 9 -5 17 -14 17 -19 0 -14 -34 -12
-49 3 -10 10 -12 8 -9 -8 2 -15 11 -20 38 -20 34 0 35 1 36 43 0 31 -5 46 -17
53 -22 12 -22 12 -45 -5z"/>
<path d="M2420 1500 c0 -5 5 -10 10 -10 6 0 10 5 10 10 0 6 -4 10 -10 10 -5 0
-10 -4 -10 -10z"/>
</g>
</svg>
